<?xml version="1.0" standalone="no"?><!DOCTYPE svg PUBLIC "-//W3C//DTD SVG 1.1//EN" "http://www.w3.org/Graphics/SVG/1.1/DTD/svg11.dtd"><svg t="1700216428242" class="icon" viewBox="0 0 1024 1024" version="1.1" xmlns="http://www.w3.org/2000/svg" p-id="6253" xmlns:xlink="http://www.w3.org/1999/xlink" width="200" height="200"><path d="M490.666667 106.666667h42.666666v768h-42.666666z" fill="#37474F" p-id="6254"></path><path d="M550.762667 699.136l30.165333 30.165333-214.186667 214.186667-30.165333-30.165333z" fill="#37474F" p-id="6255"></path><path d="M688.192 913.578667l-30.165333 30.165333-214.186667-214.186667 30.165333-30.165333z" fill="#37474F" p-id="6256"></path><path d="M85.333333 170.666667h853.333334v597.333333H85.333333z" fill="#CFD8DC" p-id="6257"></path><path d="M64 149.333333h896v85.333334H64zM64 746.666667h896v42.666666H64z" fill="#607D8B" p-id="6258"></path><path d="M672 928m-32 0a32 32 0 1 0 64 0 32 32 0 1 0-64 0Z" fill="#607D8B" p-id="6259"></path><path d="M352 928m-32 0a32 32 0 1 0 64 0 32 32 0 1 0-64 0Z" fill="#607D8B" p-id="6260"></path><path d="M680.533333 403.2l-125.866666 128-128-128-172.8 170.666667 46.933333 46.933333 125.866667-128 128 128 172.8-170.666667z" fill="#C51162" p-id="6261"></path><path d="M768 512l-149.333333-149.333333h149.333333z" fill="#C51162" p-id="6262"></path></svg>